<?xml version="1.0" standalone="no"?>
<!DOCTYPE svg PUBLIC "-//W3C//DTD SVG 20010904//EN"
 "http://www.w3.org/TR/2001/REC-SVG-20010904/DTD/svg10.dtd">
<svg version="1.0" xmlns="http://www.w3.org/2000/svg"
 width="2160.000000pt" height="2160.000000pt" viewBox="0 0 2160.000000 2160.000000"
 preserveAspectRatio="xMidYMid meet">
<metadata>
Created by potrace 1.16, written by Peter Selinger 2001-2019
</metadata>
<g transform="translate(0.000000,2160.000000) scale(0.100000,-0.100000)"
fill="#000000" stroke="none">
<path d="M10240 21594 c-25 -2 -119 -9 -210 -14 -221 -15 -650 -63 -890 -100
-2067 -322 -3955 -1217 -5540 -2624 -176 -156 -693 -673 -846 -846 -384 -433
-676 -814 -986 -1285 -261 -397 -433 -696 -653 -1140 -579 -1168 -935 -2411
-1064 -3720 -40 -403 -46 -532 -46 -1065 0 -533 6 -662 46 -1065 286 -2899
1717 -5536 4001 -7372 1368 -1100 2999 -1852 4733 -2182 358 -68 836 -131
1245 -163 226 -18 1338 -18 1545 0 371 32 616 60 895 103 2672 414 5096 1826
6792 3957 1267 1592 2054 3499 2277 5517 55 489 64 701 58 1350 -3 319 -10
627 -16 685 -6 58 -20 196 -31 306 -21 208 -70 572 -95 704 -8 41 -23 125 -35
185 -11 61 -22 119 -24 130 -279 1371 -818 2667 -1594 3831 -303 453 -582 815
-946 1224 -158 177 -674 694 -848 848 -733 649 -1474 1156 -2323 1587 -1226
623 -2489 987 -3890 1121 -252 24 -311 26 -890 29 -341 1 -640 1 -665 -1z
m-3928 -1699 c48 -173 106 -321 171 -434 55 -97 166 -248 224 -303 l38 -37
125 95 c110 84 352 249 429 293 350 200 591 310 931 424 155 52 440 129 540
147 644 114 1042 134 1605 80 554 -52 1083 -177 1605 -378 124 -48 355 -149
431 -188 l54 -28 -85 -8 c-336 -29 -588 -111 -776 -252 -110 -82 -287 -267
-271 -283 4 -3 48 -1 99 5 317 39 535 52 848 52 333 0 540 -15 875 -61 713
-99 1388 -349 1950 -722 123 -82 318 -227 312 -233 -1 -2 -86 6 -187 18 -157
18 -245 22 -580 22 -427 1 -553 -9 -857 -70 -662 -132 -1127 -441 -1358 -902
-88 -178 -145 -395 -165 -639 -18 -220 -33 -237 -275 -318 -565 -187 -932
-501 -1124 -960 -39 -94 -85 -240 -97 -310 -4 -22 -9 -44 -11 -48 -6 -10 -112
124 -185 237 -77 118 -185 340 -237 486 -68 193 -153 488 -143 494 4 2 45 7
92 11 177 15 379 103 527 230 49 42 146 158 188 225 144 229 215 548 186 835
-46 449 -281 784 -630 896 -167 53 -384 51 -552 -6 -252 -86 -474 -273 -666
-560 -83 -124 -148 -251 -228 -445 -108 -265 -160 -334 -262 -353 -40 -8 -90
7 -121 35 -13 13 -48 55 -77 93 -55 75 -115 138 -153 163 -32 21 -46 5 -76
-82 l-24 -67 -26 34 c-46 60 -67 139 -69 254 -1 57 -5 103 -8 103 -25 0 -100
-129 -125 -215 -35 -121 -16 -298 46 -412 15 -29 26 -53 24 -53 -3 0 -25 19
-51 43 -128 118 -258 395 -324 695 -13 56 -27 102 -31 102 -12 0 -26 -41 -49
-139 -25 -104 -27 -248 -4 -351 24 -111 109 -272 236 -450 140 -197 165 -241
187 -331 l18 -74 46 -6 c130 -19 205 -118 248 -329 31 -149 71 -260 114 -319
42 -57 70 -68 61 -23 -15 66 -17 265 -5 337 7 41 16 75 21 75 9 0 109 -111
109 -122 0 -4 5 -8 11 -8 12 0 7 59 -18 184 -29 149 -116 341 -195 431 -16 19
-26 35 -22 35 5 0 43 -13 84 -28 409 -154 775 -405 931 -640 75 -114 92 -167
97 -307 7 -215 -36 -296 -308 -584 -246 -259 -300 -368 -300 -607 0 -90 6
-134 29 -226 68 -268 191 -496 499 -919 340 -466 472 -755 502 -1101 46 -514
-217 -1093 -700 -1544 -288 -268 -546 -443 -1230 -834 -749 -427 -1024 -616
-1307 -900 -357 -356 -559 -747 -642 -1241 -24 -140 -45 -488 -34 -543 l9 -39
61 109 c173 309 442 659 808 1054 251 270 726 732 990 965 55 48 136 120 180
160 44 40 96 85 115 101 29 24 261 221 350 298 90 77 489 398 665 535 116 90
218 171 228 179 10 9 -12 -36 -49 -99 -614 -1055 -1031 -2155 -1178 -3104 -53
-343 -68 -536 -70 -880 -1 -402 1 -453 30 -710 49 -438 121 -780 256 -1220
153 -499 329 -927 663 -1612 l133 -272 -61 39 c-214 135 -682 480 -917 675
-46 38 -94 77 -105 86 -380 309 -903 810 -1261 1210 -289 322 -555 663 -783
1002 -40 59 -77 107 -83 107 -7 0 -9 -75 -5 -232 6 -284 38 -496 108 -727 11
-35 18 -66 15 -68 -9 -9 -321 311 -395 405 -376 478 -616 1057 -715 1722 -53
356 -51 807 4 1168 90 586 296 1085 618 1502 37 47 120 140 186 207 66 68 117
125 115 128 -24 24 -365 59 -479 50 -349 -29 -527 -84 -1138 -349 -277 -120
-340 -136 -537 -143 -220 -7 -360 20 -542 108 -157 75 -254 192 -290 351 -31
138 -18 445 32 723 8 44 17 98 20 120 3 22 9 63 15 90 25 129 52 381 53 485 1
216 -72 482 -224 815 -43 95 -138 331 -165 410 -46 133 -75 266 -80 369 -6
119 -9 120 87 -39 91 -151 232 -359 247 -363 8 -3 12 13 12 55 1 98 17 179 49
245 43 88 149 205 256 285 50 37 129 106 176 153 69 68 90 96 108 143 22 61
29 181 11 192 -5 3 -29 -5 -53 -18 -134 -75 -389 -97 -622 -53 -60 12 -134 17
-255 19 -141 3 -174 11 -213 55 -44 49 28 241 154 409 196 262 496 510 1229
1013 269 185 382 271 471 359 122 122 138 177 79 272 -61 100 -73 166 -46 266
34 127 74 187 252 373 131 136 189 205 240 283 49 73 87 154 79 166 -2 5 -30
0 -60 -11 -31 -10 -93 -25 -138 -34 -100 -18 -336 -31 -322 -17 6 6 172 123
370 261 398 279 423 297 413 307 -11 11 -293 -13 -408 -34 -181 -34 -335 -86
-434 -146 -31 -18 -56 -31 -56 -29 0 3 18 41 40 84 113 228 266 387 470 490
63 32 228 95 272 104 66 14 242 72 244 81 2 6 -42 37 -97 70 -235 140 -366
279 -410 435 -17 62 -27 130 -19 130 3 0 24 -18 45 -41 73 -74 210 -154 330
-192 56 -18 273 -53 280 -45 3 3 -1 36 -9 74 -46 214 -115 362 -228 495 -26
31 -48 60 -48 64 0 4 62 5 138 2 195 -7 323 -49 482 -157 70 -48 189 -158 221
-204 29 -43 50 -47 44 -8 -73 418 -100 745 -91 1074 6 254 8 275 32 423 26
167 88 417 112 460 3 5 14 -31 25 -80 11 -50 37 -153 59 -230z m4050 -2054
c76 -26 125 -59 184 -124 49 -53 125 -190 140 -251 6 -26 5 -28 -12 -22 -83
33 -247 27 -409 -14 -115 -29 -166 -57 -189 -103 -27 -56 -10 -103 81 -223 88
-116 108 -153 100 -186 -4 -14 -47 -65 -98 -114 -130 -128 -149 -169 -158
-349 l-6 -119 -45 69 c-25 39 -88 113 -140 166 -124 124 -200 165 -430 228
-32 8 -43 66 -36 171 24 316 269 655 589 818 138 70 316 92 429 53z m3688
-204 c73 -23 166 -64 303 -133 152 -76 226 -121 452 -269 347 -228 504 -308
795 -405 211 -71 450 -125 764 -176 82 -13 150 -25 152 -27 3 -2 -40 -49 -93
-104 -197 -201 -327 -259 -678 -303 -88 -11 -172 -20 -187 -20 -15 0 -29 -4
-32 -8 -4 -7 63 -70 187 -177 631 -544 841 -752 1064 -1052 140 -188 293 -447
388 -658 l37 -80 -94 92 c-149 146 -222 201 -357 268 -114 57 -217 90 -375
120 -72 14 -139 27 -148 29 -29 6 -30 -9 -9 -91 11 -43 23 -89 27 -103 11 -45
84 -284 101 -330 131 -373 278 -682 583 -1230 387 -694 574 -1082 750 -1554
27 -71 43 -123 36 -115 -7 8 -46 55 -87 105 -41 50 -85 105 -99 121 -448 551
-756 909 -1015 1182 -88 91 -405 406 -495 491 -52 48 -363 309 -430 360 -25
19 -47 37 -50 40 -11 12 -251 182 -350 247 -313 208 -729 428 -1050 556 -211
83 -254 99 -369 137 -123 39 -126 50 -18 50 90 0 320 36 418 65 186 56 295
129 346 233 23 47 27 68 26 136 -2 296 -200 543 -622 776 -269 148 -867 394
-1121 460 -83 22 -110 64 -110 174 0 106 26 286 56 386 135 447 510 747 1029
824 55 8 230 -3 275 -17z m-1325 -1897 c158 -21 189 -27 395 -77 212 -51 454
-141 633 -236 105 -56 287 -174 287 -187 0 -3 -111 -5 -248 -5 -533 -1 -999
-89 -1322 -250 -214 -107 -329 -246 -330 -398 0 -126 44 -276 131 -447 199
-387 653 -851 1584 -1617 66 -54 224 -184 350 -288 282 -232 640 -533 755
-635 516 -454 789 -720 1084 -1058 108 -124 313 -381 335 -420 5 -9 13 -14 17
-10 15 15 -197 518 -356 846 -319 654 -648 1149 -1109 1667 -111 125 -417 436
-531 540 -235 214 -440 390 -685 585 -180 144 -630 487 -705 536 -22 15 -39
29 -36 31 6 7 124 -23 226 -57 319 -107 755 -309 1155 -538 1338 -764 2444
-1805 3068 -2887 346 -602 550 -1183 624 -1780 24 -196 24 -589 -1 -780 -78
-601 -275 -1115 -631 -1650 -296 -443 -679 -855 -1129 -1213 -164 -132 -344
-260 -320 -230 10 14 68 88 128 164 241 307 447 647 604 994 64 142 150 400
132 400 -4 0 -88 -98 -187 -217 -98 -120 -214 -261 -258 -314 -44 -53 -125
-152 -180 -220 -55 -67 -145 -177 -200 -243 -56 -67 -245 -296 -420 -510 -176
-214 -396 -482 -490 -596 -93 -114 -279 -339 -412 -501 -271 -330 -643 -783
-880 -1070 -169 -206 -218 -265 -358 -437 -49 -61 -91 -109 -93 -107 -2 2 6
21 17 43 76 149 243 608 359 987 181 592 286 1033 391 1650 120 701 171 1299
171 2000 0 437 -12 674 -51 1066 -169 1690 -768 3212 -1763 4479 -206 263
-411 492 -726 815 -129 132 -269 281 -310 330 -304 364 -415 676 -355 1000 84
461 395 748 911 840 200 36 471 38 729 5z m-2546 -853 c213 -380 499 -833 679
-1077 280 -378 667 -771 1190 -1209 61 -52 112 -96 112 -97 0 -1 -38 -56 -84
-121 -176 -246 -367 -593 -465 -841 -203 -519 -245 -974 -135 -1447 68 -289
229 -612 443 -890 111 -143 378 -417 531 -544 l35 -29 -125 -58 c-685 -319
-1084 -571 -1443 -914 -747 -713 -1076 -1762 -1007 -3210 11 -229 51 -662 75
-820 21 -139 22 -139 -30 -83 -134 150 -298 341 -379 442 -431 541 -636 1002
-722 1621 -43 312 -24 995 41 1480 27 201 80 508 105 615 5 22 23 101 40 175
17 74 37 155 45 180 7 25 25 90 40 145 47 173 159 503 238 701 156 392 300
682 727 1469 321 590 341 634 396 848 98 385 83 680 -51 992 -91 212 -341 643
-775 1335 -118 187 -154 267 -181 395 -59 283 26 528 268 767 82 80 342 307
353 308 3 0 38 -60 79 -133z m-7566 -1549 c14 -8 95 -15 222 -19 152 -5 211
-10 248 -24 26 -9 47 -19 47 -23 0 -3 -25 -31 -55 -63 -73 -76 -99 -135 -98
-219 1 -54 10 -87 54 -195 41 -103 53 -145 57 -202 3 -40 2 -73 -1 -73 -3 0
-15 20 -26 45 -34 76 -124 222 -237 385 -129 185 -199 297 -225 356 -20 48
-19 50 14 32z m834 -225 c20 -10 38 -23 40 -29 2 -6 -26 -28 -62 -49 -71 -42
-212 -167 -255 -227 l-27 -37 -41 81 c-51 97 -55 142 -16 188 72 85 260 124
361 73z m8787 -1483 c618 -572 1047 -1439 1275 -2577 18 -89 29 -152 75 -443
23 -140 53 -415 73 -665 22 -276 25 -1125 5 -1390 -45 -604 -135 -1156 -237
-1466 l-25 -75 -73 -23 c-479 -153 -1015 -511 -1528 -1021 -323 -322 -591
-646 -875 -1060 -139 -202 -369 -571 -423 -678 -85 -167 47 198 232 643 339
816 776 1717 1151 2375 47 81 261 430 324 527 131 202 302 432 423 573 39 44
69 85 67 90 -7 19 -457 -195 -648 -310 -434 -260 -699 -531 -1075 -1100 -149
-226 -176 -268 -393 -630 -74 -124 -137 -227 -139 -229 -8 -11 -13 16 -30 179
-25 243 -25 927 -1 1173 58 572 189 1059 384 1424 99 186 194 254 444 317 508
129 803 298 1073 614 70 82 201 292 270 433 99 201 189 462 213 615 3 21 9 57
14 79 21 95 33 318 27 505 -6 179 -39 471 -67 580 -5 19 -11 52 -14 74 -26
168 -154 576 -260 824 -95 221 -293 582 -424 772 -20 30 55 -31 162 -130z
m580 -7142 c29 -13 31 -18 46 -108 115 -730 -615 -2710 -1372 -3718 -95 -127
-133 -165 -88 -90 106 180 288 681 454 1253 60 204 173 653 221 870 14 66 34
158 44 205 96 433 159 862 168 1130 l5 175 52 53 c28 29 89 79 136 111 168
115 266 150 334 119z m-868 -805 c-3 -16 -15 -82 -26 -148 -28 -166 -49 -262
-165 -770 -54 -231 -247 -972 -271 -1035 -3 -8 -18 28 -33 80 -67 234 -245
484 -413 579 l-57 32 38 79 c146 302 339 588 579 860 96 109 334 350 345 350
5 0 6 -12 3 -27z"/>
<path d="M8355 19194 c-36 -5 -197 -32 -240 -40 -179 -31 -457 -158 -577 -261
-91 -79 -108 -96 -108 -109 0 -7 18 -23 41 -34 108 -55 205 -136 238 -199 16
-28 30 -26 66 10 47 49 198 147 330 215 207 106 479 200 823 284 107 27 171
47 169 54 -12 37 -261 77 -512 81 -110 2 -213 1 -230 -1z"/>
<path d="M5994 17603 c15 -92 18 -152 7 -203 -18 -87 -16 -86 -117 -38 l-89
43 -145 0 c-156 0 -169 -3 -312 -68 -38 -16 -68 -35 -68 -42 0 -8 29 -12 93
-12 50 -1 112 -6 137 -11 25 -6 61 -14 80 -17 56 -9 167 -54 218 -89 63 -42
95 -91 88 -134 -10 -66 -45 -98 -253 -227 -103 -64 -227 -174 -303 -270 -43
-54 -150 -226 -150 -240 0 -15 44 2 130 50 379 213 803 293 1275 241 216 -24
255 -27 255 -18 0 5 -12 19 -26 33 -33 31 -89 132 -121 217 -34 93 -72 293
-73 380 l0 72 -29 0 c-60 0 -175 31 -244 66 -129 64 -219 142 -302 261 -39 55
-60 57 -51 6z"/>
<path d="M5488 15881 c-19 -17 -46 -55 -59 -83 -22 -48 -24 -67 -24 -198 0
-131 2 -149 23 -187 12 -23 31 -47 41 -53 31 -16 84 -11 111 10 14 11 29 20
34 20 5 0 44 -20 87 -45 89 -51 115 -57 105 -22 -4 12 -12 50 -19 85 -9 53 -9
68 4 90 63 112 331 143 822 95 143 -14 12 59 -303 168 -247 86 -487 140 -656
146 l-130 6 -36 -32z"/>
<path d="M5897 15398 c9 -142 -26 -246 -122 -372 -19 -25 -35 -51 -35 -57 0
-28 467 17 638 61 67 16 238 76 250 86 12 9 -27 82 -68 127 -97 107 -355 208
-617 242 l-51 7 5 -94z"/>
<path d="M7329 13832 c-223 -174 -466 -297 -711 -358 -38 -9 -68 -20 -68 -24
0 -4 30 -39 66 -76 95 -98 187 -225 359 -494 51 -79 175 -305 175 -318 0 -7 5
-12 12 -10 14 5 18 23 88 393 28 143 56 294 65 335 8 41 24 127 35 190 12 63
30 158 40 210 26 134 34 210 23 210 -6 0 -44 -26 -84 -58z"/>
<path d="M4965 13013 c-253 -63 -594 -147 -759 -188 -164 -41 -301 -77 -304
-80 -16 -16 30 -16 255 -1 236 16 408 28 1118 76 171 12 432 30 582 41 150 10
284 19 298 19 45 0 26 16 -47 40 -40 12 -118 38 -173 56 -195 64 -486 154
-498 153 -7 0 -219 -52 -472 -116z"/>
<path d="M6060 12684 c-80 -7 -257 -23 -395 -34 -137 -12 -351 -30 -475 -40
-124 -11 -335 -29 -470 -40 -135 -11 -324 -27 -420 -35 -261 -22 -271 -23
-317 -24 -31 -1 -43 -5 -43 -16 0 -12 15 -15 78 -15 42 0 262 -5 487 -10 226
-5 570 -12 765 -16 195 -3 501 -9 680 -13 179 -4 329 -3 334 1 6 4 0 49 -13
110 -26 121 -36 148 -53 147 -7 -1 -78 -8 -158 -15z"/>
<path d="M3923 12167 c-6 -10 3 -12 167 -36 138 -21 238 -36 535 -82 72 -11
173 -26 225 -34 141 -21 348 -53 494 -77 142 -22 182 -21 331 12 55 13 221 48
369 79 153 33 271 62 274 69 3 9 -26 12 -105 13 -59 1 -126 2 -148 4 -22 1
-157 5 -300 9 -143 4 -496 14 -785 22 -847 25 -1052 29 -1057 21z"/>
<path d="M3344 11763 c30 -76 30 -305 1 -443 -17 -83 -19 -110 -5 -110 16 0
98 181 116 257 l17 71 106 -72 c494 -338 1253 -566 1887 -566 504 0 871 131
1087 389 42 50 71 100 64 108 -3 2 -43 -13 -89 -35 -292 -139 -691 -216 -1183
-229 -673 -17 -1321 128 -1691 378 -102 69 -207 161 -252 220 -35 48 -71 68
-58 32z"/>
</g>
</svg>
